ffmpeg version git-2026-04-19-de18feb Copyright (c) 2000-2026 the FFmpeg developers
  built with gcc 9 (Ubuntu 9.4.0-1ubuntu1~20.04.2)
  configuration: --enable-shared --enable-gpl --enable-libx264
  libavutil      60. 30.100 / 60. 30.100
  libavcodec     62. 30.100 / 62. 30.100
  libavformat    62. 13.102 / 62. 13.102
  libavdevice    62.  4.100 / 62.  4.100
  libavfilter    11. 15.101 / 11. 15.101
  libswscale      9.  7.100 /  9.  7.100
  libswresample   6.  4.100 /  6.  4.100
Input #0, matroska,webm, from '/home/lmy/catkin_ws/recordings_tmp/exp_15a_point/screen.mkv':
  Metadata:
    ENCODER         : Lavf62.13.102
  Duration: 00:02:23.80, start: 0.000000, bitrate: 258 kb/s
  Stream #0:0: Video: h264 (High), yuv420p(tv, progressive), 2870x1602, 25 fps, 25 tbr, 1k tbn
    Metadata:
      ENCODER         : Lavc62.30.100 libx264
      DURATION        : 00:02:23.800000000
Stream mapping:
  Stream #0:0 -> #0:0 (copy)
Output #0, mp4, to '/mnt/hgfs/sharedFolder/exp_15a_point/screen.mp4':
  Metadata:
    encoder         : Lavf62.13.102
  Stream #0:0: Video: h264 (High) (avc1 / 0x31637661), yuv420p(tv, progressive), 2870x1602, q=2-31, 25 fps, 25 tbr, 16k tbn
    Metadata:
      ENCODER         : Lavc62.30.100 libx264
      DURATION        : 00:02:23.800000000
Press [q] to stop, [?] for help
[mp4 @ 0x55b879b6d240] Starting second pass: moving the moov atom to the beginning of the file
[out#0/mp4 @ 0x55b879b6c200] video:4518KiB audio:0KiB subtitle:0KiB other streams:0KiB global headers:0KiB muxing overhead: 0.950422%
frame= 3594 fps=0.0 q=-1.0 Lsize=    4561KiB time=00:02:23.72 bitrate= 260.0kbits/s speed=1.4e+03x elapsed=0:00:00.10    
